<?xml version="1.0" standalone="no"?>
<!DOCTYPE svg PUBLIC "-//W3C//DTD SVG 20010904//EN"
 "http://www.w3.org/TR/2001/REC-SVG-20010904/DTD/svg10.dtd">
<svg version="1.0" xmlns="http://www.w3.org/2000/svg"
 width="1088.000000pt" height="1088.000000pt" viewBox="0 0 1088.000000 1088.000000"
 preserveAspectRatio="xMidYMid meet">
<metadata>
Created by potrace 1.14, written by Peter Selinger 2001-2017
</metadata>
<g transform="translate(0.000000,1088.000000) scale(0.100000,-0.100000)"
fill="#000000" stroke="none">
<path d="M3880 10045 c-9 -11 -16 -12 -25 -5 -9 8 -15 8 -20 0 -4 -6 -13 -9
-21 -6 -8 3 -14 1 -14 -3 0 -5 -8 -7 -19 -4 -10 3 -22 0 -26 -7 -5 -8 -11 -7
-23 2 -12 10 -14 10 -8 1 4 -8 1 -13 -8 -14 -17 -2 -33 -5 -41 -9 -3 -1 -9 -3
-14 -4 -5 0 -13 -4 -17 -8 -4 -4 -14 -2 -22 5 -13 9 -14 9 -8 0 4 -8 1 -13 -8
-13 -9 0 -16 -4 -16 -10 0 -5 -5 -10 -11 -10 -5 0 -7 5 -3 12 4 7 -8 1 -26
-12 -19 -13 -30 -18 -26 -9 4 7 0 5 -9 -6 -9 -11 -19 -19 -23 -18 -14 4 -52
-9 -47 -17 3 -4 -2 -11 -11 -14 -10 -4 -13 -2 -8 6 4 7 -8 1 -26 -12 -19 -13
-30 -18 -26 -9 4 7 1 6 -7 -3 -8 -10 -21 -18 -29 -18 -9 0 -21 -7 -28 -15 -7
-8 -17 -12 -23 -8 -6 3 -7 1 -3 -5 4 -8 -3 -16 -20 -22 -15 -6 -33 -18 -40
-28 -8 -9 -14 -13 -14 -7 0 5 -7 -1 -16 -13 -8 -12 -22 -22 -30 -22 -8 0 -14
-4 -14 -10 0 -5 -6 -10 -14 -10 -8 0 -29 -17 -48 -38 -18 -21 -41 -41 -50 -45
-10 -3 -18 -13 -18 -22 0 -8 -3 -14 -8 -12 -4 1 -8 -2 -10 -8 -2 -5 -13 -15
-25 -22 -12 -7 -18 -12 -13 -13 5 0 -8 -16 -30 -36 -21 -20 -32 -33 -24 -29 8
4 5 -3 -7 -16 -51 -56 -63 -69 -65 -76 -2 -5 -7 -7 -11 -5 -5 1 -6 -2 -2 -8 3
-5 1 -10 -5 -10 -6 0 -8 -4 -5 -10 3 -5 1 -10 -6 -10 -7 0 -10 -3 -6 -6 3 -3
-3 -15 -13 -27 -11 -11 -17 -24 -14 -29 3 -4 0 -8 -5 -8 -6 0 -11 -7 -11 -15
0 -8 -4 -15 -10 -15 -5 0 -10 -9 -10 -21 0 -11 -4 -18 -8 -15 -4 2 -9 -5 -9
-17 -1 -11 -9 -25 -18 -29 -9 -6 -14 -18 -11 -33 3 -14 0 -24 -6 -22 -6 1 -12
-9 -14 -23 -3 -13 -9 -27 -15 -31 -6 -3 -10 -8 -8 -10 1 -2 -1 -15 -5 -29 -5
-14 -10 -32 -11 -40 -5 -34 -17 -60 -28 -60 -7 0 -6 -4 3 -10 11 -7 11 -10 2
-10 -7 0 -11 -4 -7 -9 3 -5 1 -13 -5 -16 -8 -5 -7 -11 1 -21 9 -11 9 -14 0
-14 -7 0 -9 -4 -6 -10 3 -5 -2 -10 -12 -10 -15 0 -15 -2 -4 -9 12 -8 12 -12 2
-25 -9 -11 -10 -16 -2 -16 7 0 5 -10 -6 -27 -10 -15 -13 -24 -7 -20 7 4 11 -4
10 -22 -1 -16 -4 -27 -8 -24 -5 2 -8 -316 -7 -706 0 -464 4 -711 10 -711 6 0
7 -4 4 -10 -3 -5 1 -10 10 -10 9 0 14 -4 11 -9 -3 -5 1 -12 10 -15 8 -3 13
-10 10 -15 -3 -5 1 -12 10 -15 10 -4 13 -2 8 7 -4 6 2 4 14 -7 12 -10 28 -16
37 -12 9 3 14 2 11 -3 -7 -11 22 -23 35 -15 5 3 9 0 9 -6 0 -6 4 -9 9 -5 5 3
16 -2 25 -10 9 -9 17 -11 21 -5 4 6 12 4 21 -5 9 -8 20 -13 25 -10 5 4 9 0 9
-7 0 -10 2 -10 9 1 6 9 10 10 12 2 4 -10 35 -21 67 -23 6 -1 12 -8 13 -17 0
-11 2 -12 6 -3 4 10 8 10 21 0 13 -11 14 -11 7 2 -5 9 0 8 13 -4 13 -11 35
-21 50 -23 48 -5 52 -6 52 -16 0 -5 6 -7 14 -4 8 3 16 2 18 -3 2 -7 32 -15 71
-19 5 -1 6 -5 3 -10 -3 -4 5 -7 19 -6 13 2 26 -3 28 -10 3 -7 17 -11 31 -10
14 2 26 -1 26 -6 0 -5 3 -8 8 -8 14 3 72 -14 78 -22 2 -4 11 -6 19 -2 8 3 15
0 15 -7 0 -7 7 -10 15 -6 8 3 15 2 15 -2 0 -4 10 -8 22 -9 11 -1 24 -6 27 -10
10 -13 44 -16 36 -3 -6 9 -2 9 14 1 12 -7 27 -8 34 -4 6 4 14 8 17 8 15 1 68
40 64 47 -3 4 2 8 10 8 9 0 15 3 15 8 -4 22 2 42 11 37 6 -4 8 6 6 24 -2 17 0
31 4 31 9 0 6 31 -4 48 -4 7 -2 12 4 12 6 0 8 5 4 12 -11 18 -12 48 -2 48 5 0
4 9 -2 20 -6 11 -7 20 -2 20 10 0 9 30 -2 48 -4 7 -2 12 4 12 6 0 8 5 4 12
-11 18 -12 48 -2 48 5 0 4 9 -2 20 -6 11 -7 20 -2 20 10 0 9 30 -2 48 -4 7 -2
12 4 12 6 0 8 5 4 12 -11 18 -12 48 -2 48 5 0 4 9 -2 20 -6 11 -7 20 -2 20 10
0 9 30 -2 48 -4 7 -2 12 4 12 6 0 8 5 4 12 -11 18 -12 48 -2 48 5 0 4 9 -2 20
-6 11 -7 20 -2 20 10 0 9 30 -2 48 -4 7 -2 12 4 12 6 0 8 5 4 12 -11 18 -12
48 -2 48 5 0 4 9 -2 20 -6 11 -7 20 -2 20 10 0 9 30 -2 48 -4 7 -2 12 4 12 6
0 8 5 4 12 -11 18 -12 48 -2 48 5 0 4 9 -2 20 -6 11 -7 20 -2 20 10 0 9 30 -2
48 -4 7 -2 12 4 12 6 0 8 5 4 12 -11 18 -12 48 -2 48 5 0 4 9 -2 20 -6 11 -7
20 -2 20 10 0 9 30 -2 48 -4 7 -2 12 4 12 6 0 8 5 4 12 -11 17 -12 48 -3 48 9
0 7 20 -4 37 -4 6 -3 14 3 18 6 4 7 12 3 18 -9 15 -11 47 -3 47 8 0 6 32 -3
47 -4 6 -1 14 5 16 10 4 10 6 0 6 -7 1 -10 6 -6 12 3 6 6 31 6 55 -1 30 2 42
9 38 8 -4 9 1 4 16 -5 15 -2 25 6 31 12 7 11 9 -1 9 -9 0 -11 3 -5 8 6 4 21
29 35 57 26 52 74 108 84 98 3 -4 6 1 6 11 0 9 5 14 10 11 6 -3 13 1 16 9 3 9
10 16 16 16 5 0 6 -6 3 -12 -4 -7 2 -3 12 10 15 18 21 20 32 10 8 -8 11 -8 8
-2 -4 7 0 14 7 17 8 3 17 1 20 -6 3 -9 5 -8 5 1 1 7 6 10 11 7 6 -3 10 -2 10
4 0 6 42 10 104 9 58 0 110 3 115 7 6 3 11 1 11 -6 0 -8 3 -9 9 -4 6 6 53 8
111 5 58 -3 105 -1 111 5 6 5 9 4 9 -5 0 -9 3 -10 9 -5 6 6 53 8 111 5 58 -3
105 -1 111 5 6 5 9 4 9 -5 0 -9 3 -10 9 -4 6 5 53 7 111 4 58 -3 105 -1 111 5
6 5 9 4 9 -5 0 -9 3 -10 9 -4 6 5 53 7 111 4 58 -3 105 -1 111 5 6 5 9 4 9 -5
0 -9 3 -10 9 -4 6 5 53 7 111 4 58 -3 105 -1 111 5 6 5 9 4 9 -5 0 -9 3 -10 9
-4 6 5 53 7 111 4 58 -3 105 -1 111 5 6 5 9 4 9 -5 0 -9 3 -11 10 -4 6 6 35 7
70 4 35 -3 64 -2 70 4 7 7 10 5 10 -4 0 -9 3 -10 9 -5 6 6 53 8 111 5 58 -3
105 -1 111 5 6 5 9 4 9 -5 0 -9 3 -10 9 -5 6 6 53 8 111 5 58 -3 105 -1 111 5
6 5 9 4 9 -5 0 -9 3 -11 10 -4 6 6 35 7 70 4 35 -3 64 -2 70 4 7 7 10 5 10 -4
0 -9 3 -10 9 -5 6 6 53 8 111 5 58 -3 105 -1 111 5 6 5 9 4 9 -5 0 -10 3 -11
10 -4 6 6 31 8 60 4 27 -3 56 -5 65 -4 8 1 15 -2 15 -7 0 -4 7 -5 17 -2 12 5
14 3 8 -8 -7 -12 -6 -12 7 -1 13 10 17 10 22 -3 3 -8 10 -15 16 -15 6 0 8 6 4
13 -4 6 5 1 19 -12 15 -14 27 -21 27 -17 0 6 11 -3 72 -61 10 -9 15 -19 13
-23 -3 -5 2 -10 10 -13 24 -10 49 -68 54 -130 1 -5 4 -6 9 -3 4 2 7 -13 7 -35
0 -22 2 -45 6 -50 3 -6 3 -28 -1 -50 -4 -21 -4 -39 1 -39 4 0 4 -13 -1 -30 -5
-18 -5 -32 1 -35 5 -4 5 -14 1 -23 -7 -15 -8 -37 -2 -44 6 -8 6 -48 -1 -48 -9
0 -6 -26 4 -36 4 -4 2 -13 -4 -20 -7 -8 -7 -14 1 -19 7 -4 7 -12 0 -25 -6 -10
-6 -21 -2 -24 5 -3 6 -26 2 -51 -4 -25 -4 -45 0 -45 4 0 4 -18 0 -40 -4 -22
-4 -40 1 -40 4 0 4 -13 -1 -30 -5 -17 -5 -32 0 -35 5 -3 5 -17 0 -31 -6 -14
-7 -31 -3 -37 10 -16 11 -47 2 -47 -9 0 -7 -20 4 -37 4 -6 3 -14 -3 -18 -6 -4
-7 -12 -3 -18 9 -15 11 -47 3 -47 -9 0 -6 -32 4 -48 4 -7 2 -12 -4 -12 -6 0
-8 -5 -4 -12 11 -18 12 -48 2 -48 -5 0 -4 -9 2 -20 6 -11 7 -20 2 -20 -10 0
-9 -30 2 -48 4 -7 2 -12 -4 -12 -6 0 -8 -5 -4 -12 11 -18 12 -48 2 -48 -5 0
-4 -9 2 -20 6 -11 7 -20 2 -20 -10 0 -9 -30 2 -48 4 -7 2 -12 -4 -12 -6 0 -8
-5 -4 -12 11 -18 12 -48 2 -48 -5 0 -4 -9 2 -20 6 -11 7 -20 2 -20 -10 0 -9
-30 2 -48 4 -7 2 -12 -4 -12 -6 0 -8 -5 -4 -12 10 -16 13 -48 4 -48 -12 0 -4
-37 13 -63 9 -15 17 -30 17 -34 0 -5 14 -17 30 -26 17 -10 30 -22 30 -27 0 -5
9 -7 20 -5 11 2 20 0 20 -6 0 -10 28 -8 47 4 6 4 13 2 15 -4 2 -5 11 -7 21 -4
9 4 14 12 10 19 -3 6 -3 8 2 4 4 -4 15 -2 23 5 13 10 14 9 7 -3 -7 -12 -6 -13
7 -3 8 7 18 10 21 6 4 -3 7 0 7 7 0 7 3 11 6 7 4 -3 22 0 40 8 19 8 34 11 34
8 0 -3 7 0 15 7 8 6 19 9 25 5 5 -3 10 -1 10 6 0 7 10 9 25 7 13 -3 22 -1 19
3 -5 8 10 13 29 10 4 0 7 3 7 9 0 5 7 7 15 4 8 -4 15 -1 15 5 0 6 3 10 8 9 14
-3 82 14 82 21 0 4 6 8 13 9 23 2 46 8 53 14 3 4 13 4 22 1 11 -5 13 -3 7 7
-6 10 -4 12 7 8 8 -4 30 2 47 13 18 11 30 15 26 9 -3 -5 -2 -10 4 -10 5 0 15
8 20 18 8 13 10 14 11 2 0 -13 1 -13 10 0 5 8 10 11 10 6 0 -5 7 -3 15 4 8 6
19 9 25 5 5 -3 10 -1 10 6 0 7 10 9 25 7 13 -3 22 -1 19 3 -5 8 10 13 29 10 4
0 7 3 7 9 0 5 7 6 17 3 10 -4 14 -2 9 5 -4 7 2 9 19 6 17 -3 27 1 31 11 3 8
10 12 15 9 5 -3 9 0 9 6 0 6 5 8 10 5 6 -3 13 1 16 9 3 9 10 13 15 10 5 -3 9
-2 8 3 -3 19 2 34 10 29 5 -3 12 1 15 10 4 10 2 13 -7 8 -9 -6 -9 -5 0 8 18
22 18 1385 0 1407 -9 12 -9 13 1 7 6 -4 12 -2 12 3 0 6 -5 11 -11 11 -8 0 -8
4 0 14 9 10 9 16 1 21 -6 4 -9 12 -7 18 2 7 -3 21 -12 31 -9 11 -10 16 -3 12
7 -4 12 -1 12 9 0 10 -5 13 -12 9 -10 -6 -10 -4 0 8 9 11 9 17 2 20 -6 2 -12
10 -13 18 -2 8 -7 21 -11 29 -7 11 -5 13 10 8 18 -7 18 -6 -1 10 -11 10 -19
26 -17 36 2 10 -3 26 -12 36 -12 13 -13 20 -4 29 9 9 8 12 -4 12 -11 0 -15 6
-11 20 3 11 0 20 -6 20 -6 0 -11 6 -11 13 0 18 -23 67 -32 67 -4 0 -5 6 -2 14
3 8 0 17 -5 21 -6 3 -9 11 -6 16 4 5 -2 9 -11 9 -10 0 -15 3 -11 6 8 9 -64
145 -80 151 -7 3 -13 11 -13 17 0 7 -9 22 -20 34 -12 12 -18 22 -15 22 3 0 -5
11 -19 24 -15 13 -26 28 -26 35 0 6 -7 11 -15 11 -9 0 -12 6 -8 17 4 10 2 14
-4 10 -10 -7 -53 36 -53 53 0 6 -3 9 -7 8 -5 -1 -21 10 -37 25 -16 15 -25 27
-20 28 5 0 -1 4 -14 10 -14 5 -20 13 -16 20 4 7 3 9 -3 6 -5 -3 -17 3 -26 14
-10 11 -23 17 -29 13 -7 -4 -8 -3 -4 4 4 7 -3 17 -18 24 -14 6 -26 15 -26 20
0 5 -4 6 -10 3 -5 -3 -10 1 -10 10 0 9 -5 13 -10 10 -6 -3 -13 1 -16 9 -3 9
-10 14 -14 11 -4 -3 -13 2 -20 10 -7 8 -19 15 -27 15 -7 0 -16 7 -19 15 -4 8
-10 13 -14 10 -4 -3 -13 2 -20 10 -7 8 -16 12 -22 9 -5 -3 -17 2 -26 13 -9 10
-26 20 -37 21 -11 2 -23 9 -27 15 -4 7 -8 8 -8 2 0 -5 -4 -4 -8 2 -4 7 -19 14
-32 17 -14 2 -24 9 -22 17 2 10 0 10 -11 0 -11 -9 -16 -9 -19 0 -2 6 -16 12
-31 12 -15 1 -27 5 -27 10 0 4 -8 7 -18 7 -10 0 -24 6 -30 12 -10 10 -15 10
-22 -2 -5 -8 -10 -10 -10 -4 0 11 -37 26 -68 28 -7 1 -17 8 -23 16 -9 13 -10
13 -6 -1 4 -13 1 -15 -14 -12 -10 3 -19 9 -19 13 0 9 -26 7 -36 -2 -9 -9 -35
2 -29 13 3 4 -668 9 -1509 9 -1214 0 -1515 -2 -1519 -12 -4 -10 -6 -10 -6 0
-1 6 -10 12 -22 12 -13 0 -18 -4 -13 -12 6 -10 5 -10 -8 0 -12 10 -18 9 -28
-3z m-750 -339 c0 -2 -8 -10 -17 -17 -16 -13 -17 -12 -4 4 13 16 21 21 21 13z"/>
<path d="M5033 6812 c4 -17 2 -21 -7 -13 -14 11 -106 21 -106 11 0 -4 -6 -7
-12 -8 -32 -2 -50 -9 -58 -21 -4 -8 -12 -11 -18 -7 -6 3 -13 -3 -17 -14 -3
-11 -11 -20 -16 -20 -6 0 -7 -5 -4 -10 3 -6 0 -13 -8 -16 -9 -3 -13 -13 -9
-26 3 -11 -1 -24 -9 -29 -10 -6 -10 -9 -1 -9 6 0 12 -5 12 -11 0 -5 -4 -8 -8
-5 -5 3 -9 -1 -9 -9 0 -8 4 -12 9 -9 4 3 8 0 8 -5 0 -6 -4 -11 -9 -11 -6 0 -6
-12 -1 -30 5 -18 5 -30 -1 -30 -5 0 -9 -5 -9 -11 0 -5 4 -8 9 -4 6 3 6 -6 1
-24 -6 -21 -5 -31 3 -35 8 -3 8 -5 -1 -5 -7 -1 -10 -5 -7 -11 12 -20 14 -51 3
-44 -8 5 -9 1 -5 -10 4 -10 7 -22 7 -27 0 -6 6 -7 13 -4 6 4 3 -1 -7 -9 -15
-12 -16 -16 -5 -16 11 0 12 -2 0 -9 -10 -6 -11 -13 -2 -29 14 -27 14 -35 -1
-26 -10 6 -10 4 0 -8 8 -10 9 -17 3 -20 -6 -1 -8 -13 -5 -25 4 -13 11 -20 18
-17 6 3 2 -2 -8 -10 -15 -12 -16 -16 -5 -16 11 0 12 -2 0 -9 -10 -6 -11 -13
-2 -29 14 -27 14 -35 -1 -26 -9 5 -9 2 1 -9 9 -12 10 -17 2 -17 -7 0 -9 -5 -4
-12 4 -7 8 -25 8 -41 1 -20 -3 -26 -14 -22 -11 4 -10 0 4 -15 10 -11 13 -20 7
-20 -7 0 -12 -5 -12 -11 0 -5 4 -8 9 -4 6 3 6 -6 1 -25 -6 -21 -5 -30 3 -30 9
0 9 -2 0 -8 -8 -5 -9 -13 -3 -22 5 -9 5 -19 -1 -27 -7 -8 -7 -18 1 -32 6 -13
7 -21 1 -21 -6 0 -6 -11 -1 -30 5 -18 5 -30 -1 -30 -5 0 -9 -5 -9 -11 0 -5 4
-8 9 -4 6 3 6 -6 1 -25 -6 -21 -5 -30 3 -30 9 0 9 -2 0 -8 -8 -5 -9 -13 -3
-22 5 -9 5 -19 -1 -27 -7 -8 -7 -18 1 -32 6 -13 7 -21 1 -21 -6 0 -6 -11 -1
-29 6 -21 5 -31 -3 -35 -9 -3 -9 -5 0 -5 8 -1 9 -10 4 -28 -9 -35 -3 -65 12
-57 7 3 3 -2 -7 -10 -15 -12 -16 -16 -5 -16 11 0 12 -2 0 -9 -10 -6 -11 -13
-2 -29 14 -27 14 -35 -1 -26 -10 6 -10 4 0 -8 8 -10 9 -17 3 -20 -6 -1 -8 -13
-5 -25 4 -13 11 -20 18 -17 6 3 2 -2 -8 -10 -15 -12 -16 -16 -5 -16 11 0 12
-2 0 -9 -10 -6 -11 -13 -2 -29 14 -27 14 -35 -1 -26 -10 6 -10 4 0 -8 10 -13
10 -17 0 -21 -10 -4 -10 -8 2 -16 11 -8 11 -11 2 -11 -9 0 -10 -5 -3 -18 7
-13 7 -22 0 -29 -8 -8 -7 -17 0 -32 7 -12 8 -21 4 -21 -10 0 -8 -93 1 -109 4
-6 1 -11 -6 -11 -9 0 -9 -3 2 -10 12 -8 12 -10 1 -10 -11 0 -11 -3 -1 -15 7
-9 8 -15 2 -15 -12 0 -10 -33 3 -42 6 -5 5 -8 -3 -8 -9 0 -10 -5 -3 -18 7 -13
7 -22 0 -29 -8 -8 -7 -17 0 -32 7 -12 8 -21 2 -21 -6 0 -6 -11 -1 -30 5 -18 5
-30 -1 -30 -5 0 -9 -5 -9 -11 0 -5 4 -8 9 -4 6 3 6 -6 1 -24 -6 -21 -5 -31 3
-35 8 -3 8 -5 -1 -5 -7 -1 -10 -5 -7 -11 12 -20 14 -51 3 -44 -8 5 -9 1 -5
-10 4 -10 7 -22 7 -27 0 -6 6 -7 13 -4 6 4 3 -1 -7 -9 -15 -12 -16 -16 -5 -16
11 0 12 -2 0 -9 -10 -6 -11 -13 -2 -29 14 -27 14 -35 -1 -26 -10 6 -10 4 0 -8
8 -10 9 -17 3 -20 -6 -1 -8 -13 -5 -25 4 -13 11 -20 18 -17 6 3 2 -2 -8 -10
-15 -12 -16 -16 -5 -16 11 0 12 -2 0 -9 -10 -6 -11 -13 -2 -29 14 -27 14 -35
-1 -26 -9 5 -9 2 1 -9 9 -12 10 -17 2 -17 -7 0 -9 -5 -4 -12 4 -7 8 -25 8 -41
1 -20 -3 -26 -14 -22 -11 4 -10 0 4 -15 10 -11 13 -20 7 -20 -7 0 -12 -5 -12
-11 0 -5 4 -8 9 -4 6 3 6 -6 1 -25 -6 -21 -5 -30 3 -30 9 0 9 -2 0 -8 -8 -5
-9 -13 -3 -22 5 -9 5 -19 -1 -27 -7 -8 -7 -18 1 -32 6 -13 7 -21 1 -21 -6 0
-6 -11 -1 -30 5 -18 5 -30 -1 -30 -5 0 -9 -5 -9 -11 0 -5 5 -7 12 -3 7 4 8 3
4 -5 -4 -7 -13 -10 -19 -8 -7 2 -18 -3 -25 -12 -10 -14 -11 -14 -7 -1 4 11 -1
16 -14 16 -11 0 -17 -4 -14 -9 3 -5 -4 -4 -15 2 -15 8 -22 8 -25 -2 -4 -9 -6
-9 -6 1 -1 14 -31 17 -31 2 0 -7 -6 -7 -20 0 -15 8 -20 8 -20 -2 0 -8 -3 -9
-8 -3 -9 13 -42 15 -42 3 0 -6 -6 -5 -15 2 -12 10 -15 10 -15 -1 0 -11 -2 -11
-10 1 -9 13 -11 13 -20 0 -9 -13 -10 -13 -10 0 0 12 -2 13 -9 1 -6 -10 -14
-11 -26 -3 -11 5 -30 6 -46 2 -19 -6 -29 -4 -33 3 -3 8 -5 7 -5 -2 -1 -11 -4
-11 -16 -1 -9 7 -15 8 -15 2 0 -12 -33 -10 -42 3 -5 6 -8 4 -8 -5 0 -13 -1
-13 -10 0 -9 13 -11 13 -20 0 -9 -13 -10 -13 -10 0 0 12 -2 13 -9 1 -5 -7 -14
-10 -21 -6 -17 11 -89 12 -82 1 3 -6 -3 -6 -14 -2 -10 4 -24 9 -31 10 -7 1
-16 5 -19 9 -4 4 -13 2 -21 -4 -10 -9 -13 -8 -13 1 0 9 -4 9 -17 -1 -11 -10
-14 -10 -9 -1 4 7 1 12 -8 12 -9 0 -16 5 -16 11 0 5 -5 7 -10 4 -6 -4 -21 0
-33 8 -12 8 -26 15 -30 15 -11 1 -98 89 -98 99 0 4 -6 15 -14 23 -7 8 -16 25
-19 38 -4 12 -11 22 -15 22 -4 0 -7 9 -8 20 -1 13 2 18 10 13 7 -3 3 3 -7 15
-11 12 -16 22 -11 22 4 0 2 6 -4 14 -8 10 -9 16 -1 21 7 4 7 12 0 26 -6 10 -7
19 -2 19 10 0 9 30 -2 48 -4 7 -2 12 4 12 6 0 8 5 4 12 -11 18 -12 48 -2 48 5
0 4 9 -2 20 -6 11 -7 20 -2 20 10 0 9 30 -2 48 -4 7 -2 12 4 12 6 0 8 5 4 12
-10 16 -13 48 -4 48 8 0 6 37 -2 45 -2 3 -2 25 2 50 4 25 4 45 0 45 -4 0 -4
18 0 40 4 22 4 40 -1 40 -4 0 -4 13 1 30 5 17 5 32 0 35 -5 3 -5 17 0 31 6 14
7 31 3 37 -10 16 -11 47 -2 47 9 0 6 26 -4 36 -4 4 -2 13 4 20 7 8 7 14 -1 19
-7 4 -7 12 0 25 6 10 6 21 2 24 -5 3 -6 26 -2 51 4 25 4 45 0 45 -4 0 -4 18 0
40 4 22 4 40 -1 40 -4 0 -4 13 1 30 5 17 5 32 0 35 -5 3 -5 17 0 31 6 14 7 31
3 37 -10 16 -11 47 -2 47 9 0 6 26 -4 36 -4 4 -2 13 4 20 7 8 7 14 -1 19 -7 4
-7 12 0 25 6 10 6 21 2 24 -5 3 -6 26 -2 51 4 25 4 45 0 45 -4 0 -4 18 0 40 4
22 4 40 -1 40 -4 0 -4 13 1 30 5 17 5 32 0 35 -5 3 -5 17 0 31 6 14 7 31 3 37
-10 16 -11 47 -2 47 9 0 6 26 -4 36 -4 4 -2 13 4 20 7 8 7 14 -1 19 -7 4 -7
12 0 25 6 10 6 21 2 24 -5 3 -6 26 -2 51 4 25 4 45 0 45 -4 0 -4 18 0 40 4 22
4 40 -1 40 -4 0 -4 13 1 30 5 17 5 32 0 35 -5 3 -5 17 0 31 6 14 7 31 3 37 -4
7 -8 25 -10 42 -1 16 -7 31 -12 33 -6 2 -9 7 -6 12 3 4 -7 15 -20 24 -14 9
-23 21 -20 26 3 6 -1 7 -9 4 -9 -3 -16 -2 -16 4 0 5 -16 13 -35 16 -19 4 -39
14 -45 24 -11 16 -11 16 -6 -1 5 -16 4 -16 -18 -2 -12 8 -26 12 -29 8 -4 -3
-7 -1 -7 5 0 6 -9 9 -20 7 -11 -2 -20 1 -20 7 0 5 -7 8 -15 4 -8 -3 -15 -1
-15 5 0 6 -4 7 -10 4 -5 -3 -10 -1 -10 6 0 8 -5 7 -17 -2 -12 -10 -15 -10 -9
-1 7 12 -31 34 -45 26 -4 -2 -19 3 -35 11 -15 7 -31 12 -36 9 -4 -3 -8 -1 -8
5 0 5 -9 8 -19 6 -11 -2 -22 3 -25 11 -3 9 -11 12 -17 8 -6 -3 -15 0 -20 7 -7
12 -9 12 -9 0 0 -12 -3 -11 -17 1 -10 9 -26 14 -35 13 -10 -2 -18 1 -18 6 0 5
-9 9 -20 9 -11 0 -20 5 -20 11 0 8 -4 8 -13 0 -10 -8 -18 -6 -33 8 -11 10 -27
17 -37 15 -9 -1 -19 2 -23 7 -3 5 -10 7 -15 4 -5 -4 -9 -1 -9 6 0 8 -4 8 -16
-1 -12 -11 -15 -11 -12 -1 2 8 -8 15 -22 17 -14 3 -31 12 -39 22 -13 16 -13
16 -8 0 6 -16 3 -16 -27 1 -38 22 -106 22 -132 1 -16 -13 -17 -13 -9 0 8 13 7
13 -11 0 -32 -24 -64 -62 -64 -77 0 -7 -4 -13 -10 -13 -15 0 -12 -2530 3
-2549 8 -10 8 -13 1 -8 -15 9 -12 -59 4 -75 7 -7 7 -19 2 -34 -6 -15 -5 -24 3
-28 9 -3 8 -7 -3 -15 -13 -9 -13 -11 2 -11 12 0 15 -5 11 -17 -4 -11 -3 -14 6
-9 14 9 11 -16 -4 -26 -6 -5 -5 -8 4 -8 11 0 11 -3 0 -17 -10 -11 -10 -14 -1
-9 11 6 17 -5 13 -26 0 -5 3 -8 8 -8 6 0 8 -9 6 -20 -2 -11 0 -20 5 -20 4 0 7
-8 6 -17 -2 -10 0 -20 3 -23 14 -12 43 -79 37 -88 -3 -6 -3 -12 1 -14 5 -1 18
-22 30 -46 12 -24 17 -40 10 -37 -7 4 -4 0 5 -8 10 -8 15 -16 13 -19 -3 -3 4
-13 15 -23 11 -10 20 -26 20 -37 0 -10 5 -18 11 -18 6 0 9 -7 5 -15 -3 -9 0
-15 9 -15 8 0 15 -9 15 -21 0 -11 5 -17 10 -14 6 3 10 -1 10 -9 0 -9 5 -16 10
-16 6 0 10 -7 10 -15 0 -7 8 -19 18 -24 9 -6 13 -11 9 -11 -4 0 2 -11 15 -24
56 -58 83 -90 81 -96 -1 -4 9 -13 22 -20 14 -7 25 -20 25 -27 0 -8 4 -12 9 -8
5 3 19 -8 31 -25 12 -16 26 -30 31 -30 5 0 25 -15 43 -32 45 -44 58 -53 100
-76 19 -11 33 -22 29 -26 -6 -5 12 -10 30 -7 4 0 7 -4 7 -9 0 -6 7 -10 15 -10
8 0 15 -4 15 -8 0 -5 16 -14 35 -22 19 -7 32 -16 30 -20 -2 -4 2 -7 9 -7 7 0
34 -10 59 -22 26 -13 54 -24 62 -25 9 -1 25 -10 35 -19 12 -10 20 -12 20 -5 0
6 8 4 18 -5 21 -19 37 -23 26 -6 -3 6 5 3 20 -6 15 -10 29 -15 33 -11 4 3 14
-1 24 -10 11 -10 19 -12 24 -4 4 7 16 3 36 -10 16 -12 29 -17 29 -12 0 5 7 9
15 9 8 0 15 -4 15 -9 0 -4 16 -8 35 -8 21 0 35 -5 35 -12 0 -8 3 -9 8 -3 6 8
44 12 62 5 38 -13 100 -18 93 -6 -4 5 -1 6 6 1 19 -11 110 -12 103 0 -3 5 2 4
11 -4 10 -8 17 -9 17 -3 0 7 10 8 30 2 17 -5 30 -5 30 0 0 4 16 4 35 0 24 -5
35 -4 35 4 0 7 4 6 9 -3 7 -11 9 -11 14 0 3 8 6 9 6 4 1 -7 16 -9 36 -7 19 2
42 -1 50 -8 12 -10 16 -9 21 4 5 13 9 14 20 5 11 -9 14 -8 14 7 0 12 3 15 8 8
10 -16 62 -24 62 -10 0 6 4 5 9 -3 7 -11 9 -11 14 0 3 8 6 9 6 4 1 -7 16 -9
36 -7 19 2 42 -1 50 -8 12 -10 16 -9 21 4 4 12 10 13 24 6 25 -13 33 -13 24 3
-6 9 -5 9 8 0 8 -7 17 -11 19 -9 2 2 4 -11 4 -29 0 -19 -4 -31 -9 -28 -5 4 -7
-1 -3 -11 4 -10 7 -22 7 -27 0 -6 6 -7 13 -4 6 4 3 -1 -7 -9 -15 -12 -16 -16
-5 -16 11 0 12 -2 0 -9 -10 -6 -11 -13 -2 -29 14 -27 14 -35 -1 -26 -10 6 -10
4 0 -8 8 -10 9 -17 3 -20 -6 -1 -8 -13 -5 -25 4 -13 11 -20 18 -17 6 3 2 -2
-8 -10 -15 -12 -16 -16 -5 -16 11 0 12 -2 0 -9 -10 -6 -11 -13 -2 -29 14 -27
14 -35 -1 -26 -9 5 -9 2 1 -9 9 -12 10 -17 2 -17 -7 0 -9 -5 -4 -12 4 -7 8
-25 8 -41 1 -20 -3 -26 -14 -22 -11 4 -10 0 4 -15 10 -11 13 -20 7 -20 -7 0
-12 -5 -12 -11 0 -5 4 -8 9 -4 6 3 6 -6 1 -25 -6 -21 -5 -30 3 -30 9 0 9 -2 0
-8 -8 -5 -9 -13 -3 -22 5 -9 5 -19 -1 -27 -7 -8 -7 -18 1 -32 6 -13 7 -21 1
-21 -6 0 -6 -11 -1 -29 6 -21 5 -31 -3 -35 -9 -3 -9 -5 0 -5 8 -1 9 -10 3 -31
-5 -19 -5 -30 1 -30 6 0 8 -4 5 -9 -8 -13 17 -75 37 -89 9 -7 15 -17 12 -22
-3 -5 0 -12 6 -16 8 -5 10 -2 4 7 -4 8 3 3 16 -11 13 -14 20 -19 14 -10 -6 10
-2 9 12 -4 13 -10 20 -23 17 -27 -3 -5 2 -9 11 -9 9 0 34 -19 57 -42 23 -24
38 -37 33 -29 -5 9 -4 12 3 7 7 -4 12 -14 12 -23 0 -9 6 -13 15 -9 13 5 20 -5
16 -26 0 -5 2 -7 7 -6 4 2 18 -5 32 -15 13 -9 20 -17 15 -17 -6 0 5 -8 23 -16
17 -9 32 -23 32 -31 0 -8 4 -12 10 -8 5 3 17 -6 26 -20 9 -14 21 -25 26 -25 5
0 23 -15 40 -32 17 -18 27 -26 23 -18 -4 8 4 2 19 -15 14 -16 25 -26 26 -22 0
13 30 -20 30 -33 0 -6 5 -8 10 -5 6 3 13 -1 16 -9 3 -9 10 -16 15 -16 4 0 26
-18 49 -41 22 -22 40 -38 40 -34 0 4 15 -8 34 -27 48 -46 63 -58 76 -58 6 0 8
-4 5 -10 -3 -5 1 -10 10 -10 9 0 13 -4 10 -10 -6 -9 8 -14 28 -11 4 0 7 -4 7
-10 0 -16 41 -50 51 -43 5 3 9 0 9 -6 0 -6 10 -21 21 -33 12 -12 18 -15 14 -7
-4 8 11 -4 34 -28 22 -23 41 -39 41 -36 0 3 7 -2 16 -10 8 -9 20 -14 25 -10 5
3 8 0 7 -7 -4 -19 108 -25 129 -7 14 11 16 11 9 -2 -4 -8 0 -6 8 4 9 11 16 16
16 12 0 -4 11 5 25 20 14 15 25 31 25 36 0 5 5 6 12 2 6 -4 8 -3 4 4 -3 6 -2
22 4 36 7 19 6 26 -3 26 -8 0 -7 4 3 10 12 8 13 13 3 29 -6 10 -9 22 -5 25 10
10 10 96 0 102 -4 3 -5 11 -1 17 11 17 11 137 1 131 -5 -4 -4 3 3 14 10 16 10
24 1 35 -7 7 -9 17 -5 21 10 10 11 96 1 102 -4 3 -5 11 -1 17 11 17 11 137 1
131 -5 -4 -4 3 3 14 10 16 10 24 1 35 -7 7 -9 17 -5 21 10 10 11 96 1 102 -4
3 -5 11 -1 17 12 19 11 177 -1 177 -6 0 -5 4 2 9 15 9 13 42 -3 53 -6 5 -6 8
2 8 8 0 11 12 8 36 -3 19 -1 33 3 30 10 -6 9 65 -2 82 -4 6 -3 12 3 12 6 0 6
11 1 30 -5 18 -5 30 1 30 5 0 9 5 9 11 0 5 -4 8 -9 4 -6 -3 -6 6 -1 25 6 21 5
30 -3 30 -9 0 -9 2 0 8 8 5 9 13 3 22 -5 9 -5 19 1 27 7 8 7 18 -1 32 -6 13
-7 21 -1 21 6 0 6 11 1 29 -6 21 -5 31 3 35 9 3 9 5 0 5 -8 1 -9 10 -3 29 4
16 4 36 -2 45 -6 11 -5 17 2 17 5 0 9 3 9 8 -4 21 3 29 24 26 82 -11 107 -11
101 -1 -5 8 -3 8 6 0 11 -10 16 -9 27 5 8 9 12 12 9 6 -4 -7 6 -14 24 -16 17
-3 30 0 30 6 0 6 5 4 10 -4 7 -11 10 -11 10 -2 0 9 5 10 19 2 26 -13 34 -13
25 3 -5 8 -2 8 9 -2 10 -8 17 -9 17 -3 0 7 10 8 30 2 17 -5 30 -5 30 0 0 4 16
4 35 0 24 -5 35 -4 35 4 0 7 4 6 9 -3 7 -11 9 -11 14 0 3 8 6 9 6 4 1 -7 16
-9 36 -7 19 2 42 -1 50 -8 12 -10 16 -9 21 4 3 9 10 13 16 10 18 -11 58 -11
58 0 0 6 5 4 10 -4 5 -8 10 -10 10 -5 0 6 19 9 46 6 30 -2 44 0 40 7 -4 6 2 8
14 5 11 -3 17 -10 14 -15 -4 -6 6 -2 22 8 17 12 25 14 20 6 -7 -11 -4 -12 11
-3 14 7 24 7 33 -2 10 -10 11 -9 5 2 -6 10 -4 13 7 8 9 -3 27 1 41 8 18 9 27
10 30 2 2 -7 12 -5 27 6 28 19 44 22 34 6 -3 -6 5 -4 19 5 20 13 26 14 30 4 4
-10 6 -10 6 0 1 6 8 12 17 12 8 0 13 4 10 9 -3 4 6 6 19 3 15 -2 25 0 25 7 0
6 5 11 11 11 5 0 7 -6 3 -12 -4 -7 2 -4 14 6 12 11 22 16 22 11 0 -4 11 0 25
9 14 9 30 14 35 11 6 -3 10 -2 10 4 0 6 18 16 40 22 22 7 40 16 40 21 0 5 5 6
10 3 6 -3 10 -1 10 5 0 6 5 8 10 5 6 -3 10 -1 10 4 0 6 6 11 14 11 8 0 21 6
28 13 7 6 30 21 51 32 20 11 37 23 37 27 0 5 6 7 13 5 6 -1 11 4 9 11 -1 8 2
11 6 8 5 -3 21 5 36 19 14 13 26 21 26 18 0 -3 14 9 32 25 17 17 36 28 42 25
6 -3 8 -3 4 1 -8 9 36 56 52 56 6 0 8 5 5 10 -3 6 2 10 11 10 10 0 15 3 11 6
-8 8 18 34 33 34 6 0 9 4 6 8 -3 5 4 14 14 22 10 8 17 17 14 22 -3 4 3 8 12 8
10 0 15 3 11 6 -8 8 16 33 26 27 4 -2 7 -1 6 4 -1 4 3 19 9 33 6 14 11 21 11
15 1 -5 10 3 20 19 11 17 17 34 14 39 -3 6 -1 7 4 4 10 -6 20 6 21 27 0 5 6
12 14 17 7 5 13 14 13 21 1 7 5 12 11 11 5 -1 11 8 11 19 1 12 8 25 15 29 7 5
9 9 5 9 -5 0 -1 7 8 16 9 9 14 22 11 29 -3 8 2 16 10 19 9 3 13 10 9 15 -3 5
-1 12 5 16 6 4 8 11 5 16 -4 5 -1 9 5 9 7 0 10 7 6 15 -3 8 -2 15 3 15 4 0 13
12 19 26 7 14 8 23 3 20 -5 -3 -4 5 2 19 7 14 15 25 18 25 3 0 5 15 4 34 0 19
2 33 5 31 3 -2 11 9 17 26 7 18 8 27 1 23 -6 -4 -6 1 1 13 6 11 7 23 4 27 -3
3 -2 6 4 6 5 0 9 10 8 23 -1 12 3 25 9 29 8 5 8 10 -1 19 -12 12 -7 42 6 35 4
-3 8 4 8 15 1 13 -2 17 -10 12 -9 -5 -9 -3 0 8 9 11 12 315 13 1307 0 1141 -2
1293 -15 1298 -8 4 -15 13 -15 21 0 7 -13 22 -30 31 -16 9 -30 20 -30 24 0 4
-7 4 -17 1 -9 -4 -14 -2 -11 3 4 5 -7 10 -23 11 -20 2 -27 -2 -23 -9 5 -7 2
-8 -7 -2 -20 12 -39 14 -39 2 0 -5 -9 -6 -20 -3 -11 3 -20 3 -20 -2 0 -4 -11
-13 -25 -20 -19 -8 -23 -8 -18 0 4 8 2 8 -9 0 -8 -7 -18 -10 -21 -6 -4 3 -7 1
-7 -6 0 -7 -7 -11 -15 -8 -8 4 -17 2 -20 -4 -4 -5 -10 -7 -15 -4 -4 3 -11 -3
-14 -12 -6 -14 -9 -14 -15 -4 -7 10 -11 10 -22 -1 -13 -12 -29 -17 -66 -20 -7
-1 -13 -5 -13 -9 0 -6 -37 -16 -77 -21 -7 -1 -13 -5 -13 -10 0 -5 -4 -6 -10
-3 -5 3 -10 1 -10 -5 0 -6 -4 -8 -10 -5 -5 3 -10 0 -10 -7 0 -11 -2 -11 -9 0
-7 11 -11 11 -23 -2 -9 -8 -18 -12 -22 -9 -3 3 -13 0 -23 -8 -14 -12 -16 -12
-8 0 6 11 2 10 -16 -2 -13 -9 -31 -17 -41 -17 -10 0 -18 -5 -18 -11 0 -5 -4
-8 -8 -5 -10 6 -84 -19 -77 -26 3 -3 -6 -4 -20 -3 -14 2 -25 -1 -25 -7 0 -6
-6 -8 -14 -5 -8 3 -17 -1 -20 -10 -5 -12 -9 -13 -20 -4 -10 9 -15 8 -19 -3 -4
-9 -14 -12 -28 -9 -15 4 -20 3 -15 -5 5 -8 2 -10 -8 -6 -9 3 -16 1 -16 -5 0
-6 -5 -11 -11 -11 -18 0 -60 -50 -53 -62 5 -7 2 -8 -6 -3 -10 6 -12 3 -8 -13
4 -12 3 -20 -2 -17 -4 3 -10 -2 -14 -10 -3 -8 -1 -17 4 -20 6 -4 7 -13 1 -24
-5 -9 -6 -23 -2 -30 5 -7 5 -30 1 -52 -4 -21 -4 -39 0 -39 4 0 4 -18 0 -40 -4
-22 -4 -40 1 -40 4 0 4 -13 -1 -30 -5 -17 -5 -32 0 -35 5 -3 5 -17 0 -31 -6
-14 -7 -31 -3 -37 10 -16 11 -47 2 -47 -9 0 -7 -20 4 -37 4 -6 3 -15 -3 -18
-8 -5 -8 -11 0 -20 8 -10 8 -15 0 -20 -8 -5 -8 -10 0 -20 8 -9 8 -15 0 -20 -6
-3 -7 -12 -3 -18 9 -15 11 -47 3 -47 -9 0 -6 -32 4 -48 4 -7 2 -12 -4 -12 -6
0 -8 -5 -4 -12 11 -17 12 -48 3 -48 -9 0 -6 -26 4 -36 4 -4 2 -13 -4 -20 -7
-8 -7 -14 1 -19 7 -4 7 -12 0 -25 -6 -10 -6 -21 -2 -24 5 -3 6 -26 2 -51 -4
-25 -4 -45 0 -45 4 0 4 -18 0 -40 -4 -22 -4 -40 1 -40 4 0 4 -13 -1 -30 -5
-17 -5 -32 0 -35 5 -3 5 -17 0 -31 -6 -14 -7 -31 -3 -37 10 -16 11 -47 2 -47
-9 0 -6 -26 4 -36 4 -4 2 -13 -4 -20 -7 -8 -7 -14 1 -19 7 -4 7 -12 0 -25 -6
-10 -6 -21 -2 -24 5 -3 6 -26 2 -51 -4 -25 -4 -45 0 -45 4 0 4 -18 0 -40 -4
-22 -4 -40 1 -40 4 0 4 -13 -1 -30 -5 -17 -5 -32 0 -35 5 -3 5 -17 0 -31 -6
-14 -7 -31 -3 -37 10 -16 11 -47 2 -47 -9 0 -7 -20 4 -37 4 -6 3 -14 -3 -18
-6 -4 -7 -12 -3 -18 9 -15 11 -47 3 -47 -9 0 -6 -32 4 -48 4 -7 2 -12 -4 -12
-6 0 -8 -5 -4 -12 11 -18 12 -48 2 -48 -5 0 -4 -9 2 -20 6 -11 7 -20 2 -20
-10 0 -9 -30 2 -48 4 -7 2 -12 -4 -12 -6 0 -8 -5 -4 -12 11 -17 12 -48 3 -48
-8 0 -7 -20 3 -36 4 -6 1 -20 -6 -30 -10 -13 -11 -23 -4 -31 7 -9 7 -13 -2
-13 -7 0 -10 -6 -7 -14 3 -8 -1 -17 -10 -20 -12 -5 -13 -9 -4 -20 9 -10 8 -15
-4 -20 -9 -3 -13 -10 -10 -16 3 -5 1 -10 -4 -10 -6 0 -11 -7 -11 -15 0 -8 -4
-15 -10 -15 -5 0 -10 -7 -10 -16 0 -8 -4 -13 -9 -9 -5 3 -12 -3 -15 -12 -3
-10 -19 -24 -36 -31 -17 -8 -28 -17 -25 -22 3 -5 -8 -11 -25 -15 -16 -4 -30
-12 -30 -18 0 -7 -4 -6 -10 3 -6 10 -10 11 -10 3 0 -7 -7 -13 -15 -13 -8 0
-15 -4 -15 -9 0 -10 -19 -9 -37 2 -7 5 -13 4 -13 -2 0 -6 -21 -9 -49 -8 -27 1
-47 -1 -44 -5 7 -13 -12 -9 -25 4 -8 8 -12 8 -12 1 0 -13 -32 -12 -42 2 -5 6
-8 4 -8 -5 0 -13 -1 -13 -10 0 -9 13 -11 13 -20 0 -9 -13 -10 -13 -10 0 0 12
-2 13 -9 1 -6 -10 -14 -11 -26 -3 -11 5 -30 6 -46 2 -19 -6 -29 -4 -33 3 -3 9
-5 9 -5 0 -1 -8 -10 -9 -31 -3 -19 5 -30 5 -30 -1 0 -6 -9 -5 -21 2 -12 6 -19
7 -16 2 8 -12 -46 -10 -55 2 -5 6 -8 5 -8 -4 0 -11 -3 -11 -15 -1 -9 7 -15 8
-15 2 0 -12 -33 -10 -42 3 -5 6 -8 4 -8 -5 0 -13 -1 -13 -10 0 -9 13 -11 13
-20 0 -9 -13 -10 -13 -10 0 0 12 -2 13 -9 1 -6 -10 -14 -11 -26 -3 -11 6 -30
6 -48 1 -16 -5 -27 -6 -24 -3 3 3 2 16 -3 29 -5 13 -6 26 -2 29 8 9 12 37 3
32 -4 -3 -7 4 -7 15 0 13 5 18 15 14 11 -4 10 0 -4 15 -10 11 -13 20 -7 20 7
0 12 5 12 11 0 5 -4 8 -9 4 -6 -3 -6 6 -1 25 6 21 5 30 -3 30 -9 0 -9 2 0 8 8
5 9 13 3 22 -5 9 -5 19 1 27 7 8 7 18 -1 32 -6 13 -7 21 -1 21 6 0 6 11 1 30
-5 18 -5 30 1 30 5 0 9 5 9 11 0 5 -4 8 -9 4 -6 -3 -6 6 -1 25 6 21 5 30 -3
30 -9 0 -9 2 0 8 8 5 9 13 3 22 -5 9 -5 19 1 27 7 8 7 18 -1 32 -6 13 -7 21
-1 21 6 0 6 11 1 29 -6 21 -5 31 3 35 9 3 9 5 0 5 -8 1 -9 10 -3 31 6 21 5 30
-3 30 -9 0 -9 2 0 8 8 5 9 13 3 22 -5 9 -5 19 1 27 7 8 7 18 -1 32 -6 12 -7
21 -3 21 10 0 8 93 -1 109 -4 6 -1 11 6 11 9 0 9 3 -2 10 -12 8 -12 10 -1 10
11 0 11 3 1 15 -7 9 -8 15 -2 15 12 0 10 33 -3 42 -6 5 -5 8 3 8 9 0 10 5 3
18 -7 13 -7 22 0 29 8 8 7 17 0 32 -7 12 -8 21 -2 21 6 0 6 11 1 30 -5 18 -5
30 1 30 5 0 9 5 9 11 0 5 -4 8 -9 4 -6 -3 -6 6 -1 24 6 21 5 31 -3 35 -8 3 -8
5 1 5 7 1 10 5 7 11 -11 18 -14 51 -4 45 5 -4 9 -1 9 4 0 6 -6 11 -12 11 -10
0 -10 2 -1 8 8 5 9 13 3 22 -5 9 -5 19 1 27 7 8 7 18 -1 32 -6 12 -7 21 -3 21
10 0 8 93 -1 109 -4 6 -1 11 6 11 9 0 9 3 -2 10 -12 8 -12 10 -1 10 11 0 11 3
1 15 -7 9 -8 15 -2 15 12 0 10 33 -3 42 -6 5 -5 8 3 8 9 0 10 5 3 18 -7 13 -7
22 0 29 8 8 7 17 0 32 -7 12 -8 21 -2 21 6 0 6 11 1 30 -5 18 -5 30 1 30 5 0
9 5 9 11 0 5 -4 8 -9 4 -6 -3 -6 6 -1 24 6 21 5 31 -3 35 -8 3 -8 5 1 5 7 1
10 5 7 11 -11 18 -14 51 -4 45 5 -4 9 -1 9 4 0 6 -6 11 -12 11 -10 0 -10 2 -1
8 8 5 9 13 3 22 -5 9 -5 19 1 27 7 8 7 18 -1 32 -6 12 -7 21 -3 21 10 0 8 93
-1 109 -4 6 -1 11 6 11 9 0 9 3 -2 10 -12 8 -12 10 -1 10 11 0 11 3 1 15 -7 9
-8 15 -2 15 12 0 10 33 -3 42 -6 5 -5 8 3 8 9 0 10 5 3 18 -7 13 -7 22 0 29 8
8 7 17 0 32 -7 12 -8 21 -2 21 6 0 6 11 1 30 -5 18 -5 30 1 30 5 0 9 5 9 11 0
5 -4 8 -9 4 -6 -3 -6 6 -1 24 6 21 5 31 -3 35 -8 3 -8 5 1 5 7 1 10 5 7 11
-11 18 -14 51 -4 45 5 -4 9 -1 9 4 0 6 -6 11 -12 11 -10 0 -10 2 -1 8 8 5 9
13 3 22 -5 9 -5 19 1 27 7 8 7 18 -1 32 -7 14 -7 21 -1 21 6 0 8 6 5 13 -9 24
-11 106 -2 101 5 -3 5 -10 2 -16 -4 -6 -2 -8 4 -5 5 4 8 16 5 27 -3 11 -10 17
-15 14 -6 -4 -8 2 -3 15 3 11 3 21 -2 21 -5 0 -9 8 -10 18 -1 17 -63 92 -63
77 0 -5 -10 0 -22 11 -12 10 -18 13 -13 5 5 -9 -1 -7 -19 4 -20 14 -26 14 -26
4 0 -11 -2 -11 -10 1 -6 10 -10 11 -10 3 0 -7 -5 -13 -11 -13 -5 0 -7 5 -4 10
10 16 -18 7 -33 -10 -8 -8 -11 -10 -8 -4 4 7 -6 14 -24 16 -17 3 -30 0 -30 -6
0 -6 -5 -4 -10 4 -7 11 -10 11 -10 2 0 -10 -5 -10 -20 -2 -15 8 -20 8 -20 -2
0 -9 -3 -9 -10 2 -8 12 -10 12 -10 1 0 -11 -3 -11 -15 -1 -8 7 -15 9 -15 4 0
-9 -50 -10 -115 -3 -17 2 -36 -1 -44 -5 -9 -6 -12 -5 -8 1 3 5 0 10 -7 10 -9
0 -12 -7 -8 -16 5 -14 3 -14 -11 -3 -21 17 -67 23 -67 8 0 -6 -5 -4 -10 4 -8
12 -10 12 -10 -5 0 -12 -3 -16 -8 -9 -10 16 -62 24 -62 10 0 -6 -5 -4 -10 4
-9 13 -10 13 -10 0 0 -9 -3 -11 -8 -5 -9 12 -162 13 -162 1 0 -5 -6 -3 -14 3
-11 9 -15 9 -19 -1 -4 -10 -6 -10 -6 0 -1 6 -6 12 -12 12 -5 0 -7 -6 -3 -12 5
-9 2 -9 -9 1 -9 7 -17 9 -17 3 0 -12 -42 -3 -53 12 -5 6 -7 1 -4 -12z"/>
</g>
</svg>
